{"title":"Nightcrawler 2014 DVDscr XVID AC3 ACAB","uid":11626588,"size":866023486,"categoryP":"video","categoryS":"movies","magnet":"?xt=urn:btih:ec483bd8dfa8c8c9b461b7895b765bef91549f68&amp;dn=Nightcrawler+2014+DVDscr+XVID+AC3+ACAB&amp;tr=udp%3A%2F%2Ftracker.openbittorrent.com%3A80&amp;tr=udp%3A%2F%2Fopen.demonii.com%3A1337&amp;tr=udp%3A%2F%2Ftracker.coppersurfer.tk%3A6969&amp;tr=udp%3A%2F%2Fexodus.desync.com%3A6969","seeders":120,"leechers":26,"uploader":"xxxlavalxxx","files":-1,"time":1417628572,"description":"[IMG]http://i.imgur.com/HQ1eaUU.jpg[/IMG]\n &lt;a href=&quot;\nhttp://www.imdb.com/title/tt2872718/&quot; rel=&quot;nofollow&quot; target=&quot;_NEW&quot;&gt;\nhttp://www.imdb.com/title/tt2872718/&lt;/a&gt;\n\n\nWhen Lou Bloom, a driven man desperate for work, muscles into the world of L.A. crime journalism, he blurs the line between observer and participant to become the star of his own story. Aiding him in his effort is Nina, a TV-news veteran.\n\nDirector: Dan Gilroy\nWriter: Dan Gilroy\nStars: Jake Gyllenhaal, Rene Russo, Bill Paxton\nGenres: Crime, Drama, Thriller\nCountry: USA\nLanguage: English\n\n\nFormat                      : AVI\nFormat/Info                 : Audio Video Interleave\nFile size                   : 818 MiB\nDuration                    : 1h 57mn\nOverall bit rate            : 970 Kbps\nWriting library             : VirtualDub build 30091/release\n\nVideo\nID                          : 0\nFormat                      : MPEG-4 Visual\nFormat profile              : Advanced Simple@L5\nFormat settings, BVOP       : 2\nFormat settings, QPel       : No\nFormat settings, GMC        : No warppoints\nFormat settings, Matrix     : Default (H.263)\nMuxing mode                 : Packed bitstream\nCodec ID                    : XVID\nCodec ID/Hint               : XviD\nDuration                    : 1h 57mn\nBit rate                    : 833 Kbps\nWidth                       : 640 pixels\nHeight                      : 272 pixels\nDisplay aspect ratio        : 2.35:1\nFrame rate                  : 23.976 fps\nColor space                 : YUV\nChroma subsampling          : 4:2:0\nBit depth                   : 8 bits\nScan type                   : Progressive\nCompression mode            : Lossy\nBits/(Pixel*Frame)          : 0.200\nStream size                 : 702 MiB (86%)\nWriting library             : XviD 73\n\nAudio\nID                          : 1\nFormat                      : AC-3\nFormat/Info                 : Audio Coding 3\nMode extension              : CM (complete main)\nFormat settings, Endianness : Big\nCodec ID                    : 2000\nDuration                    : 1h 57mn\nBit rate mode               : Constant\nBit rate                    : 128 Kbps\nChannel(s)                  : 2 channels\nChannel positions           : Front: L R\nSampling rate               : 48.0 KHz\nBit depth                   : 16 bits\nCompression mode            : Lossy\nStream size                 : 108 MiB (13%)\n\n\nscreens\n &lt;a href=&quot;\nhttp://extraimago.com/images/2014/12/03/image4.png&quot; rel=&quot;nofollow&quot; target=&quot;_NEW&quot;&gt;\nhttp://extraimago.com/images/2014/12/03/image4.png&lt;/a&gt; &lt;a href=&quot;\nhttp://extraimago.com/images/2014/12/03/image5.png&quot; rel=&quot;nofollow&quot; target=&quot;_NEW&quot;&gt;\nhttp://extraimago.com/images/2014/12/03/image5.png&lt;/a&gt; &lt;a href=&quot;\nhttp://extraimago.com/images/2014/12/03/image6.png&quot; rel=&quot;nofollow&quot; target=&quot;_NEW&quot;&gt;\nhttp://extraimago.com/images/2014/12/03/image6.png&lt;/a&gt; &lt;a href=&quot;\nhttp://extraimago.com/images/2014/12/03/image7.png&quot; rel=&quot;nofollow&quot; target=&quot;_NEW&quot;&gt;\nhttp://extraimago.com/images/2014/12/03/image7.png&lt;/a&gt;","torrent":{"xt":"urn:btih:ec483bd8dfa8c8c9b461b7895b765bef91549f68","amp;dn":"Nightcrawler+2014+DVDscr+XVID+AC3+ACAB","amp;tr":["udp%3A%2F%2Ftracker.openbittorrent.com%3A80","udp%3A%2F%2Fopen.demonii.com%3A1337","udp%3A%2F%2Ftracker.coppersurfer.tk%3A6969","udp%3A%2F%2Fexodus.desync.com%3A6969"],"infoHash":"ec483bd8dfa8c8c9b461b7895b765bef91549f68","infoHashBuffer":{"type":"Buffer","data":[236,72,59,216,223,168,200,201,180,97,183,137,91,118,91,239,145,84,159,104]},"announce":[],"urlList":[]}}